<svg width="30" height="30" viewBox="0 0 30 30" fill="none" xmlns="http://www.w3.org/2000/svg">
<path d="M9.30375 6.6875C10.1025 6.6875 10.8413 6.75 11.5163 6.935C12.1925 7.05875 12.7463 7.30625 13.2375 7.615C13.73 7.92417 14.0988 8.35708 14.3438 8.91375C14.59 9.47 14.7137 10.1512 14.7137 10.8925C14.7137 11.7587 14.5288 12.5 14.0988 13.0562C13.73 13.6137 13.115 14.1075 12.3775 14.4788C13.4225 14.7888 14.2212 15.345 14.7137 16.0863C15.2063 16.8275 15.5125 17.7562 15.5125 18.8075C15.5125 19.6737 15.3275 20.415 15.02 21.0337C14.7137 21.6525 14.2212 22.2087 13.6675 22.58C13.0657 22.9775 12.4009 23.27 11.7013 23.445C10.9637 23.6313 10.2262 23.755 9.48875 23.755H1.25V6.6875H9.30375ZM8.81125 13.6125C9.4875 13.6125 10.0413 13.4275 10.4712 13.1188C10.9012 12.81 11.0863 12.2525 11.0863 11.5725C11.0863 11.2013 11.0237 10.83 10.9012 10.5838C10.7787 10.3375 10.5938 10.15 10.3488 9.965C10.0982 9.82431 9.82882 9.72033 9.54875 9.65625C9.24125 9.59375 8.935 9.59375 8.565 9.59375H5V13.6137L8.81125 13.6125ZM8.99625 20.91C9.365 20.91 9.73375 20.8475 10.0413 20.7862C10.3488 20.7237 10.6562 20.6013 10.9012 20.415C11.1507 20.2329 11.3601 20.0015 11.5163 19.735C11.6388 19.4262 11.7625 19.055 11.7625 18.6225C11.7625 17.7563 11.5162 17.1375 11.025 16.705C10.5325 16.3337 9.85625 16.1487 9.0575 16.1487H5V20.9112L8.99625 20.91ZM20.8612 20.8475C21.3529 21.3425 22.0904 21.59 23.0737 21.59C23.75 21.59 24.365 21.405 24.8563 21.0963C25.3488 20.7246 25.6562 20.3533 25.7787 19.9825H28.7913C28.2988 21.4662 27.5613 22.5175 26.5788 23.1975C25.5938 23.8162 24.4263 24.1875 23.0125 24.1875C22.1081 24.1888 21.2114 24.021 20.3687 23.6925C19.6102 23.4096 18.934 22.9422 18.4012 22.3325C17.8291 21.7642 17.4069 21.0628 17.1725 20.2912C16.865 19.4875 16.7412 18.6225 16.7412 17.6325C16.7412 16.705 16.865 15.84 17.1725 15.035C17.4675 14.2595 17.9055 13.5463 18.4637 12.9325C19.0163 12.3762 19.6925 11.8825 20.43 11.5725C21.251 11.2429 22.1278 11.0748 23.0125 11.0775C24.0575 11.0775 24.98 11.2638 25.7787 11.6963C26.5787 12.1288 27.1925 12.6237 27.6838 13.3663C28.1762 14.0462 28.5463 14.85 28.7913 15.7163C28.9138 16.5813 28.975 17.4475 28.9137 18.4363H20C20 19.4263 20.3687 20.3538 20.8612 20.8488M24.7338 14.3562C24.3038 13.9237 23.6275 13.6762 22.8275 13.6762C22.3584 13.6692 21.8946 13.7751 21.475 13.985C21.1063 14.1712 20.8612 14.4187 20.615 14.6662C20.3873 14.9043 20.2373 15.206 20.185 15.5312C20.1225 15.8413 20.0612 16.0875 20.0612 16.335H25.5938C25.4713 15.4075 25.1638 14.79 24.7338 14.3562ZM19.3237 7.8625H26.2087V9.5325H19.325L19.3237 7.8625Z" fill="white"/>
</svg>
