<svg width="324" height="93" viewBox="0 0 324 93" fill="none" xmlns="http://www.w3.org/2000/svg">
<path d="M84.2535 0.200012H99.1549V92.2H84.2535V0.200012Z" fill="#17313B"/>
<path d="M150.986 63.0451C150.986 77.2986 139.324 78.5944 135.437 78.5944C126.366 78.5944 125.07 70.1718 125.07 65.6366V30.0028H110.169V64.9887C110.169 73.4113 112.761 81.1859 117.944 85.7211C122.479 90.2563 128.31 92.2 135.437 92.2C140.62 92.2 147.099 90.9042 150.986 87.0169V92.2H165.887V30.0028H150.986V63.0451Z" fill="#17313B"/>
<path d="M195.042 7.32678H180.141V30.0028H169.127V44.2564H180.141V92.2H195.042V44.2564H206.056V30.0028H195.042V7.32678Z" fill="#17313B"/>
<path d="M252.704 73.4113C249.465 76.0029 244.93 77.9465 240.394 77.9465C230.028 77.9465 222.901 70.1719 222.901 59.8057C222.901 49.4395 230.028 42.3127 240.394 42.3127C244.93 42.3127 249.465 43.6085 252.704 46.8479L254.648 48.7916L265.014 39.0733L262.423 37.1296C256.592 31.9465 248.817 28.7071 240.394 28.7071C222.254 28.7071 208.648 42.3127 208.648 60.4536C208.648 78.5944 222.254 92.2 240.394 92.2C248.817 92.2 256.592 88.9606 262.423 83.7775L265.014 81.8339L254.648 71.4676L252.704 73.4113Z" fill="#17313B"/>
<path d="M317.493 35.1859C312.958 30.6507 308.423 28.7071 301.296 28.7071C296.113 28.7071 290.93 30.0028 287.042 33.8902V0.200012H272.141V92.2H287.042V57.862C287.042 43.6085 296.761 42.3127 300.648 42.3127C309.718 42.3127 309.07 50.7352 309.07 55.2704V91.5521H323.972V55.9183C323.972 47.4958 322.028 39.7212 317.493 35.1859Z" fill="#17313B"/>
<path d="M239.746 70.8197C245.472 70.8197 250.113 66.1786 250.113 60.4535C250.113 54.7285 245.472 50.0873 239.746 50.0873C234.021 50.0873 229.38 54.7285 229.38 60.4535C229.38 66.1786 234.021 70.8197 239.746 70.8197Z" fill="#EF4335"/>
<path d="M63.5211 69.5239C58.338 74.707 50.5634 77.9465 42.1408 77.9465C25.9437 77.9465 14.2817 64.9887 14.2817 47.4958C14.2817 30.0028 25.9437 17.0451 42.7887 17.0451C50.5634 17.0451 58.338 20.2845 64.169 26.1155L66.1127 28.0592L75.831 18.3409L73.8873 16.3972C65.4648 7.97465 54.4507 3.43944 42.7887 3.43944C18.169 2.79155 0.028163 22.2282 0.028163 47.4958C0.028163 72.7634 18.169 92.2 42.1408 92.2C53.8028 92.2 65.4648 87.6648 73.2394 79.2423L75.1831 77.2986L65.4648 67.5803L63.5211 69.5239Z" fill="#17313B"/>
</svg>
