<svg width="375" height="92" viewBox="0 0 375 92" fill="none" xmlns="http://www.w3.org/2000/svg">
<g clip-path="url(#clip0_102_40)">
<path d="M98.4485 32.6068H136.38V39.6837H121.465V79.4666H113.264V39.6837H98.4155V32.6068H98.4485ZM134.759 45.537H141.77V52.0848H141.902C142.134 51.1589 142.564 50.266 143.192 49.4062C143.82 48.5464 144.581 47.7196 145.474 47.0252C146.367 46.2976 147.359 45.7354 148.45 45.2725C149.541 44.8426 150.666 44.6111 151.79 44.6111C152.65 44.6111 153.278 44.6441 153.609 44.6772C153.94 44.7103 154.27 44.7764 154.634 44.8095V52.0187C154.105 51.9195 153.576 51.8533 153.014 51.7872C152.451 51.7211 151.922 51.688 151.393 51.688C150.137 51.688 148.946 51.9525 147.822 52.4486C146.697 52.9446 145.738 53.7052 144.912 54.6643C144.085 55.6564 143.423 56.8469 142.927 58.3019C142.431 59.757 142.2 61.4105 142.2 63.2955V79.4335H134.726V45.537H134.759ZM188.993 79.4666H181.652V74.7376H181.52C180.594 76.4572 179.238 77.8131 177.419 78.8382C175.6 79.8634 173.748 80.3925 171.863 80.3925C167.399 80.3925 164.158 79.3012 162.174 77.0855C160.19 74.8699 159.198 71.5298 159.198 67.0654V45.537H166.671V66.3379C166.671 69.3142 167.234 71.4306 168.391 72.6542C169.515 73.8778 171.136 74.5061 173.186 74.5061C174.773 74.5061 176.063 74.2746 177.121 73.7786C178.18 73.2825 179.039 72.6542 179.668 71.8275C180.329 71.0338 180.792 70.0417 181.09 68.9173C181.387 67.7929 181.52 66.5694 181.52 65.2466V45.5701H188.993V79.4666ZM201.725 68.5866C201.957 70.7692 202.784 72.2904 204.206 73.1833C205.661 74.0431 207.38 74.5061 209.397 74.5061C210.092 74.5061 210.886 74.44 211.779 74.3408C212.671 74.2415 213.531 74.0101 214.292 73.7124C215.085 73.4148 215.714 72.9518 216.243 72.3566C216.739 71.7613 216.97 71.0007 216.937 70.0417C216.904 69.0827 216.541 68.289 215.879 67.6937C215.218 67.0654 214.391 66.6024 213.366 66.2056C212.341 65.8418 211.183 65.5111 209.86 65.2466C208.538 64.982 207.215 64.6844 205.859 64.3868C204.47 64.0891 203.114 63.6923 201.825 63.2624C200.535 62.8325 199.377 62.2372 198.352 61.4766C197.327 60.7491 196.5 59.7901 195.905 58.6326C195.277 57.4752 194.979 56.0532 194.979 54.3336C194.979 52.4817 195.442 50.9605 196.335 49.7038C197.228 48.4472 198.385 47.4551 199.741 46.6945C201.13 45.9339 202.651 45.4047 204.338 45.074C206.024 44.7764 207.645 44.6111 209.166 44.6111C210.919 44.6111 212.605 44.8095 214.193 45.1733C215.78 45.537 217.235 46.1323 218.525 46.9921C219.814 47.8188 220.873 48.9101 221.732 50.2329C222.592 51.5557 223.121 53.1761 223.353 55.0611H215.548C215.185 53.2753 214.391 52.0518 213.101 51.4565C211.812 50.8282 210.323 50.5305 208.67 50.5305C208.141 50.5305 207.513 50.5636 206.785 50.6628C206.057 50.762 205.396 50.9274 204.735 51.1589C204.106 51.3904 203.577 51.7541 203.114 52.2171C202.684 52.6801 202.453 53.2753 202.453 54.0359C202.453 54.9619 202.784 55.6894 203.412 56.2516C204.04 56.8138 204.867 57.2768 205.892 57.6736C206.917 58.0374 208.075 58.3681 209.397 58.6326C210.72 58.8972 212.076 59.1948 213.465 59.4924C214.821 59.7901 216.144 60.1869 217.466 60.6168C218.789 61.0467 219.947 61.642 220.972 62.4026C221.997 63.1632 222.824 64.0891 223.452 65.2135C224.08 66.3379 224.411 67.7599 224.411 69.4134C224.411 71.4306 223.948 73.1172 223.022 74.5392C222.096 75.9281 220.906 77.0855 219.451 77.9454C217.996 78.8052 216.342 79.4666 214.556 79.8634C212.771 80.2602 210.985 80.4587 209.232 80.4587C207.083 80.4587 205.098 80.2272 203.28 79.7311C201.461 79.2351 199.873 78.5075 198.551 77.5485C197.228 76.5564 196.17 75.3328 195.409 73.8778C194.648 72.4227 194.252 70.67 194.185 68.6528H201.725V68.5866ZM226.395 45.537H232.05V35.3515H239.524V45.537H246.27V51.1258H239.524V69.248C239.524 70.0417 239.557 70.7031 239.623 71.2983C239.689 71.8605 239.855 72.3566 240.086 72.7534C240.318 73.1502 240.681 73.4479 241.177 73.6463C241.674 73.8447 242.302 73.9439 243.162 73.9439C243.691 73.9439 244.22 73.9439 244.749 73.9108C245.278 73.8778 245.807 73.8116 246.336 73.6794V79.4666C245.51 79.5658 244.683 79.6319 243.922 79.7311C243.129 79.8303 242.335 79.8634 241.508 79.8634C239.524 79.8634 237.937 79.665 236.746 79.3012C235.556 78.9375 234.597 78.3753 233.935 77.6477C233.241 76.9202 232.811 76.0273 232.546 74.936C232.315 73.8447 232.149 72.5881 232.116 71.1991V51.1919H226.461V45.537H226.395ZM251.561 45.537H258.638V50.1337H258.771C259.829 48.1495 261.284 46.7606 263.169 45.9008C265.054 45.041 267.071 44.6111 269.287 44.6111C271.965 44.6111 274.28 45.074 276.265 46.0331C278.249 46.959 279.902 48.2487 281.225 49.9022C282.548 51.5557 283.507 53.4738 284.168 55.6564C284.83 57.839 285.16 60.1869 285.16 62.6671C285.16 64.9489 284.863 67.1646 284.267 69.2811C283.672 71.4306 282.779 73.3156 281.589 74.9691C280.398 76.6226 278.877 77.9123 277.025 78.9044C275.173 79.8965 273.024 80.3925 270.51 80.3925C269.419 80.3925 268.328 80.2933 267.236 80.0949C266.145 79.8965 265.087 79.5658 264.095 79.1359C263.103 78.706 262.144 78.1438 261.317 77.4493C260.457 76.7548 259.763 75.9612 259.167 75.0683H259.035V92H251.561V45.537ZM277.686 62.5349C277.686 61.0137 277.488 59.5255 277.091 58.0704C276.694 56.6154 276.099 55.3587 275.305 54.2344C274.512 53.11 273.52 52.2171 272.362 51.5557C271.172 50.8943 269.816 50.5305 268.295 50.5305C265.153 50.5305 262.772 51.6218 261.185 53.8044C259.597 55.9871 258.804 58.8972 258.804 62.5349C258.804 64.2545 259.002 65.8418 259.432 67.2969C259.862 68.752 260.457 70.0086 261.317 71.0668C262.144 72.1251 263.136 72.9518 264.293 73.5471C265.451 74.1754 266.807 74.473 268.328 74.473C270.047 74.473 271.469 74.1093 272.66 73.4148C273.85 72.7203 274.809 71.7944 275.57 70.7031C276.331 69.5787 276.893 68.3221 277.223 66.9001C277.521 65.4781 277.686 64.023 277.686 62.5349ZM290.881 32.6068H298.355V39.6837H290.881V32.6068ZM290.881 45.537H298.355V79.4666H290.881V45.537ZM305.035 32.6068H312.509V79.4666H305.035V32.6068ZM335.426 80.3925C332.715 80.3925 330.3 79.9295 328.184 79.0367C326.068 78.1438 324.282 76.8871 322.794 75.3328C321.339 73.7455 320.214 71.8605 319.454 69.6779C318.693 67.4953 318.296 65.0812 318.296 62.4687C318.296 59.8893 318.693 57.5083 319.454 55.3257C320.214 53.1431 321.339 51.2581 322.794 49.6707C324.249 48.0834 326.068 46.8598 328.184 45.9669C330.3 45.074 332.715 44.6111 335.426 44.6111C338.138 44.6111 340.552 45.074 342.669 45.9669C344.785 46.8598 346.571 48.1165 348.059 49.6707C349.514 51.2581 350.638 53.1431 351.399 55.3257C352.16 57.5083 352.556 59.8893 352.556 62.4687C352.556 65.0812 352.16 67.4953 351.399 69.6779C350.638 71.8605 349.514 73.7455 348.059 75.3328C346.604 76.9202 344.785 78.1438 342.669 79.0367C340.552 79.9295 338.138 80.3925 335.426 80.3925ZM335.426 74.473C337.08 74.473 338.535 74.1093 339.758 73.4148C340.982 72.7203 341.974 71.7944 342.768 70.67C343.561 69.5456 344.124 68.2559 344.52 66.8339C344.884 65.4119 345.083 63.9569 345.083 62.4687C345.083 61.0136 344.884 59.5917 344.52 58.1366C344.157 56.6815 343.561 55.4249 342.768 54.3005C341.974 53.1761 340.982 52.2832 339.758 51.5888C338.535 50.8943 337.08 50.5305 335.426 50.5305C333.773 50.5305 332.318 50.8943 331.094 51.5888C329.871 52.2832 328.878 53.2092 328.085 54.3005C327.291 55.4249 326.729 56.6815 326.332 58.1366C325.968 59.5917 325.77 61.0136 325.77 62.4687C325.77 63.9569 325.968 65.4119 326.332 66.8339C326.696 68.2559 327.291 69.5456 328.085 70.67C328.878 71.7944 329.871 72.7203 331.094 73.4148C332.318 74.1423 333.773 74.473 335.426 74.473ZM354.739 45.537H360.394V35.3515H367.868V45.537H374.614V51.1258H367.868V69.248C367.868 70.0417 367.901 70.7031 367.967 71.2983C368.033 71.8605 368.198 72.3566 368.43 72.7534C368.661 73.1502 369.025 73.4479 369.521 73.6463C370.017 73.8447 370.646 73.9439 371.505 73.9439C372.034 73.9439 372.564 73.9439 373.093 73.9108C373.622 73.8778 374.151 73.8116 374.68 73.6794V79.4666C373.853 79.5658 373.027 79.6319 372.266 79.7311C371.472 79.8303 370.679 79.8634 369.852 79.8634C367.868 79.8634 366.28 79.665 365.09 79.3012C363.899 78.9375 362.94 78.3753 362.279 77.6477C361.584 76.9202 361.155 76.0273 360.89 74.936C360.658 73.8447 360.493 72.5881 360.46 71.1991V51.1919H354.805V45.537H354.739Z" fill="#191919"/>
<path d="M89.7182 32.6068H55.4579L44.8756 0L34.2602 32.6068L0 32.5737L27.7455 52.7462L17.1301 85.3199L44.8756 65.1804L72.5881 85.3199L62.0057 52.7462L89.7182 32.6068Z" fill="#00B67A"/>
<path d="M64.3868 60.1208L62.0057 52.7463L44.8756 65.1805L64.3868 60.1208Z" fill="#005128"/>
</g>
<defs>
<clipPath id="clip0_102_40">
<rect width="374.614" height="92" fill="white"/>
</clipPath>
</defs>
</svg>
