<?xml version="1.0" encoding="UTF-8"?>
<svg xmlns="http://www.w3.org/2000/svg" version="1.1" viewBox="0 0 884.01 689.86">
  <defs>
    <style>
      .cls-1 {
        fill: #fff;
      }
    </style>
  </defs>
  <!-- Generator: Adobe Illustrator 28.6.0, SVG Export Plug-In . SVG Version: 1.2.0 Build 709)  -->
  <g>
    <g id="Layer_1">
      <path class="cls-1" d="M442.01,689.86c-37.79,0-147.03-1.54-154.03-1.64C129.17,688.11,0,558.87,0,400.03v-102.69c0-76.97,28.08-144.88,81.19-196.38C131.51,52.18,201.77,20.52,284.39,9.41l.41-.05C334.67,3.4,385.63.25,436.26.01c54.68-.21,107.85,2.78,162.49,9.29,73.45,6.44,155.82,40.89,200.47,83.88,53.89,51.88,84.79,126.3,84.79,204.16v102.69c0,158.84-129.17,288.08-287.98,288.18-7,.1-116.24,1.64-154.03,1.64ZM291.77,65.88c-70.37,9.5-129.47,35.77-170.94,75.97-41.8,40.52-63.89,94.29-63.89,155.49v102.69c0,127.5,103.73,231.24,231.24,231.24h.41c1.15.02,115.6,1.64,153.42,1.64s152.27-1.63,153.42-1.64h.41c127.5,0,231.24-103.74,231.24-231.24v-102.69c0-62.47-24.55-121.93-67.34-163.13-35.62-34.29-105.57-62.98-166.34-68.21l-.94-.1c-52.44-6.27-103.48-9.19-155.92-8.94-48.4.23-97.1,3.23-144.75,8.92Z"/>
    </g>
    <g id="Layer_2">
      <path class="cls-1" d="M198.83,230.35v229.15h208.97v-229.15h-208.97ZM360.29,417.9h-113.96v-145.94h113.96v145.94Z"/>
    </g>
    <g id="Layer_3">
      <rect class="cls-1" x="541.44" y="318.84" width="228.98" height="52" transform="translate(1000.77 -311.08) rotate(90)"/>
    </g>
  </g>
</svg>